HIERARCHY
ROOT Hips
{
  OFFSET 3.13124 94.3669 -3.18751
  CHANNELS  6 Xposition Yposition Zposition Zrotation Xrotation Yrotation
  JOINT LeftUpLeg
  {
    OFFSET 8.64259 1.95398 -2.38835
    CHANNELS 3 Zrotation Xrotation Yrotation
    JOINT LeftLeg
    {
      OFFSET 43.7702 0 0
      CHANNELS 3 Zrotation Xrotation Yrotation
      JOINT LeftFoot
      {
        OFFSET 40.6238 0 0
        CHANNELS 3 Zrotation Xrotation Yrotation
        JOINT LeftToeBase
        {
          OFFSET 12.7242 0 0
          CHANNELS 3 Zrotation Xrotation Yrotation
          End Site
          {
            OFFSET 0 0 0
          }
        }
      }
    }
  }
  JOINT RightUpLeg
  {
    OFFSET -8.2249 1.95398 -2.59336
    CHANNELS 3 Zrotation Xrotation Yrotation
    JOINT RightLeg
    {
      OFFSET 43.5653 0 0
      CHANNELS 3 Zrotation Xrotation Yrotation
      JOINT RightFoot
      {
        OFFSET 40.6238 0 0
        CHANNELS 3 Zrotation Xrotation Yrotation
        JOINT RightToeBase
        {
          OFFSET 12.7242 0 0
          CHANNELS 3 Zrotation Xrotation Yrotation
          End Site
          {
            OFFSET 0 0 0
          }
        }
      }
    }
  }
  JOINT Spine
  {
    OFFSET 0.165834 0.87714 6.61349
    CHANNELS 3 Zrotation Xrotation Yrotation
    JOINT Spine1
    {
      OFFSET 7.38962 1.71661e-005 0
      CHANNELS 3 Zrotation Xrotation Yrotation
      JOINT Spine2
      {
        OFFSET 11.9445 1.14441e-005 0
        CHANNELS 3 Zrotation Xrotation Yrotation
        JOINT Spine3
        {
          OFFSET 14.7254 4.19617e-005 0
          CHANNELS 3 Zrotation Xrotation Yrotation
          JOINT Spine4
          {
            OFFSET 10.9679 0 0
            CHANNELS 3 Zrotation Xrotation Yrotation
            JOINT RightShoulder
            {
              OFFSET 2.46616 -1.6653 3.69651
              CHANNELS 3 Zrotation Xrotation Yrotation
              JOINT RightArm
              {
                OFFSET 13.0012 0 0
                CHANNELS 3 Zrotation Xrotation Yrotation
                JOINT RightForeArm
                {
                  OFFSET 28.7848 1.52588e-005 0
                  CHANNELS 3 Zrotation Xrotation Yrotation
                  JOINT RightHand
                  {
                    OFFSET 26.5688 1.52588e-005 0
                    CHANNELS 3 Zrotation Xrotation Yrotation
                    End Site
                    {
                      OFFSET 0 0 0
                    }
                  }
                }
              }
            }
            JOINT LeftShoulder
            {
              OFFSET 2.38034 -1.29275 -3.75231
              CHANNELS 3 Zrotation Xrotation Yrotation
              JOINT LeftArm
              {
                OFFSET 16.3182 6.10352e-005 0
                CHANNELS 3 Zrotation Xrotation Yrotation
                JOINT LeftForeArm
                {
                  OFFSET 27.0901 0 0
                  CHANNELS 3 Zrotation Xrotation Yrotation
                  JOINT LeftHand
                  {
                    OFFSET 24.5451 1.52588e-005 0
                    CHANNELS 3 Zrotation Xrotation Yrotation
                    End Site
                    {
                      OFFSET 0 0 0
                    }
                  }
                }
              }
            }
            JOINT Neck
            {
              OFFSET 5.0226 -0.0266342 0
              CHANNELS 3 Zrotation Xrotation Yrotation
              JOINT Head
              {
                OFFSET 6.69363 2.86102e-005 0
                CHANNELS 3 Zrotation Xrotation Yrotation
                End Site
                {
                  OFFSET 0 0 0
                }
              }
            }
          }
        }
      }
    }
  }
}
MOTION
Frames:	10
Frame Time:	0.0333333
-5.45797 94.7713 3.82492 -89.9312 71.934 -89.8488 -174.871 7.40539 96.6145 -19.3454 -5.29938 -2.68585 67.3899 5.95826 -10.6295 28.7808 8.74008e-006 4.9355e-006 174.052 6.84137 86.0065 -14.6936 -6.38023 1.54135 65.3608 -0.831109 -0.149431 28.7808 2.12354e-005 2.69953e-005 0.03726 6.3354 -90.4764 14.1935 5.85898e-006 -8.16624e-007 2.52251 6.80094e-007 -4.96195e-006 -20.0126 -6.6903e-006 -0.0100575 2.06005e-006 -4.2372e-007 -0.0100604 102.169 -18.2389 -82.1262 -16.5088 -7.50976 -7.27241 -5.72859 1.09576 -19.3123 0.546498 6.55704 1.57386 -77.7571 -21.119 97.0934 12.174 -31.5814 -11.2189 9.65715 31.5025 -16.3979 -3.63143 -0.144582 0.933241 1.75526 -0.00032875 -0.000838379 -7.41036 -0.00106225 0.00111265 
-5.44965 94.7725 3.84931 -89.7887 71.9562 -89.9843 -174.891 7.45862 96.5901 -19.3358 -5.41135 -2.66475 67.3663 5.96318 -10.6819 28.7808 8.74008e-006 4.9355e-006 174.155 6.88116 86.0366 -14.6568 -6.28494 1.48506 65.3289 -0.784012 -0.125986 28.7808 2.12354e-005 2.69953e-005 0.0378 6.3355 -90.475 14.1935 0.00026157 -9.43714e-005 2.5226 0.000271484 -7.74908e-005 -20.0126 0.000242611 -0.0100575 8.20498e-005 0.000258699 -0.0100604 102.166 -18.2559 -82.192 -16.4864 -7.35039 -7.28485 -5.72032 0.972706 -19.3565 0.626086 6.83475 1.47044 -77.715 -21.0978 97.1588 12.1675 -31.5911 -11.1625 9.72415 31.5207 -16.5106 -3.65978 -0.144583 0.909091 1.93999 -0.0392738 -0.0745801 -7.36486 -0.0947765 0.0989581 
-5.44866 94.775 3.87374 -89.6222 71.9699 -90.1427 -174.899 7.50778 96.5854 -19.3099 -5.41933 -2.68266 67.346 5.98161 -10.6581 28.7808 8.74008e-006 4.9355e-006 174.089 6.92964 86.0048 -14.5897 -6.38596 1.55411 65.2702 -0.81987 -0.141656 28.7808 2.12354e-005 2.69953e-005 0.051609 6.33498 -90.4816 14.2042 0.0240957 -0.0104523 2.53322 0.0235869 -0.0115323 -20.0019 0.0262641 -0.0100575 0.0107108 0.0262791 -0.0100604 102.168 -18.2377 -82.1221 -16.5062 -7.33811 -7.29617 -5.77701 0.894078 -19.3449 0.682326 7.04703 1.46314 -77.7601 -21.1203 97.0892 12.193 -31.6172 -11.0507 9.79472 31.4546 -16.6672 -3.63843 -0.144581 0.960881 2.01572 -0.0464048 -0.024116 -7.60445 -0.0404799 0.0575964 
-5.44971 94.7774 3.89456 -89.442 71.9761 -90.3141 -174.911 7.55977 96.5734 -19.2795 -5.4391 -2.68194 67.3292 6.00193 -10.6578 28.7808 8.74008e-006 4.9355e-006 174.034 6.97163 85.9775 -14.5162 -6.4658 1.61451 65.2267 -0.862643 -0.163094 28.7808 2.12354e-005 2.69953e-005 0.0531913 6.33157 -90.4824 14.2105 0.0253279 -0.0160608 2.53952 0.0246126 -0.0171506 -19.9956 0.0289846 -0.0100575 0.01702 0.028985 -0.0100604 102.17 -18.2417 -82.1317 -16.5202 -7.26447 -7.31567 -5.72162 0.928493 -19.3772 0.50805 6.94459 1.51027 -77.7515 -21.1171 97.0993 12.2546 -31.6272 -10.9743 9.80146 31.46 -16.6769 -3.64065 -0.144581 0.949487 2.22985 -0.0618588 -0.038512 -7.85699 -0.0632292 0.0497734 
-5.45106 94.7799 3.90222 -89.3308 71.9752 -90.4219 -174.915 7.58249 96.5627 -19.2492 -5.48152 -2.68079 67.3152 6.01485 -10.6806 28.7808 8.74008e-006 4.9355e-006 174.131 7.00399 86.01 -14.5197 -6.35522 1.55225 65.2038 -0.831325 -0.148938 28.7808 2.12354e-005 2.69953e-005 0.0557589 6.32804 -90.4857 14.2163 0.0279986 -0.0198578 2.54531 0.0277796 -0.0210942 -19.9898 0.0333117 -0.0100984 0.0228121 0.0333243 -0.0101013 102.169 -18.2396 -82.1267 -16.4988 -7.15281 -7.32127 -5.72799 0.911301 -19.373 0.398533 6.90977 1.77086 -77.7561 -21.1187 97.0941 12.3307 -31.6782 -10.818 9.93949 31.4999 -16.9072 -3.69214 -0.144577 1.04377 2.38404 -0.0685691 -0.0735258 -7.98518 -0.0576506 0.0376869 
-5.45316 94.7789 3.90587 -89.2559 71.9738 -90.5006 -174.922 7.601 96.5552 -19.2387 -5.50111 -2.68909 67.3097 6.02585 -10.7026 28.7808 8.74008e-006 4.9355e-006 174.094 7.03548 85.9879 -14.5215 -6.39023 1.58671 65.2117 -0.852699 -0.15978 28.7808 2.12354e-005 2.69953e-005 0.0576574 6.32469 -90.4867 14.2205 0.0310061 -0.0261601 2.54958 0.0296625 -0.0274862 -19.9856 0.0373926 -0.0156411 0.0270939 0.0374025 -0.0156423 102.169 -18.2397 -82.127 -16.4945 -7.01716 -7.29465 -5.75171 0.775358 -19.4256 0.491291 6.97215 1.56566 -77.7557 -21.1186 97.0944 12.3904 -31.7218 -10.6927 10.0531 31.5337 -17.0956 -3.69577 -0.144574 1.11015 2.56265 -0.0900529 -0.0694565 -8.14552 -0.079234 0.0274546 
-5.45834 94.7808 3.90392 -89.1481 71.9718 -90.609 -174.927 7.62405 96.5461 -19.2238 -5.5182 -2.69778 67.2903 6.04155 -10.7013 28.7808 8.74008e-006 4.9355e-006 174.107 7.06302 85.9856 -14.5117 -6.3788 1.58325 65.1969 -0.852986 -0.160721 28.7808 2.12354e-005 2.69953e-005 0.0602709 6.3213 -90.4885 14.231 0.0342709 -0.0322433 2.56007 0.0302978 -0.0337129 -19.9751 0.0425321 -0.0203607 0.0375558 0.0425412 -0.0203989 102.155 -18.2397 -82.127 -16.4661 -6.87093 -7.279 -5.78193 0.642579 -19.4268 0.51169 6.91816 1.76069 -77.7557 -21.1186 97.0944 12.4764 -31.7529 -10.642 10.0489 31.4919 -17.1072 -3.72525 -0.144573 1.13361 2.64625 -0.0941547 -0.105733 -8.21603 -0.0738048 0.0361313 
-5.46358 94.7795 3.90145 -89.08 71.9695 -90.6866 -174.933 7.6371 96.5279 -19.2154 -5.54691 -2.69557 67.292 6.05636 -10.7246 28.7808 8.74008e-006 4.9355e-006 174.111 7.07407 85.9759 -14.4967 -6.36699 1.57736 65.2062 -0.841056 -0.154306 28.7808 2.12354e-005 2.69953e-005 0.0629321 6.31796 -90.4926 14.2376 0.0350073 -0.0388811 2.56663 0.0309231 -0.0405069 -19.9685 0.0477014 -0.0257252 0.0441257 0.0476892 -0.0257457 102.174 -18.2397 -82.127 -16.4555 -6.75571 -7.22928 -5.74627 0.5976 -19.4824 0.400974 6.82145 1.77821 -77.7557 -21.1186 97.0944 12.5251 -31.759 -10.6386 10.023 31.5162 -17.0497 -3.70009 -0.144576 1.07314 2.76235 -0.0995649 -0.0735576 -8.34006 -0.0882809 0.0036132 
-5.46708 94.7768 3.893 -89.0104 71.9671 -90.76 -174.935 7.65435 96.5236 -19.219 -5.51885 -2.69548 67.3004 6.05821 -10.6919 28.7808 8.74008e-006 4.9355e-006 174.123 7.10056 85.9741 -14.5181 -6.36172 1.56906 65.2193 -0.84418 -0.15575 28.7808 2.12354e-005 2.69953e-005 0.0657992 6.31364 -90.4998 14.2463 0.0357027 -0.045115 2.57535 0.0315373 -0.0468964 -19.9598 0.0527726 -0.030667 0.052845 0.0527719 -0.0306746 102.159 -18.2397 -82.127 -16.4038 -6.60286 -7.19424 -5.7523 0.501513 -19.5136 0.435576 6.83899 1.81921 -77.7557 -21.1186 97.0944 12.5778 -31.7765 -10.6114 10.0209 31.5154 -17.0463 -3.73883 -0.144576 1.07456 2.87408 -0.0991383 -0.0616625 -8.46375 -0.0842406 -0.0305414 
-5.46969 94.7741 3.8799 -88.9736 71.965 -90.7987 -174.94 7.66636 96.5171 -19.2425 -5.57067 -2.69594 67.317 6.06053 -10.7435 28.7808 8.74008e-006 4.9355e-006 174.133 7.12346 85.9774 -14.5614 -6.34987 1.56314 65.2478 -0.871016 -0.171501 28.7808 2.12354e-005 2.69953e-005 0.0677023 6.31024 -90.5043 14.2528 0.03636 -0.0515137 2.58181 0.0321394 -0.0533788 -19.9533 0.0566619 -0.036148 0.0593087 0.0566488 -0.0361694 102.156 -18.2397 -82.127 -16.3516 -6.51932 -7.15823 -5.78354 0.391388 -19.4992 0.477274 6.89056 1.87741 -77.7557 -21.1186 97.0944 12.6267 -31.7884 -10.5778 10.0139 31.5079 -17.0371 -3.72882 -0.144578 1.01968 2.94362 -0.107714 -0.0542587 -8.5484 -0.0929911 -0.0304299 
